<svg width="303" height="106" viewBox="0 0 373 156" fill="none" xmlns="http://www.w3.org/2000/svg">
<path d="M127.087 69.2557C127.087 62.491 127.087 55.4187 127.087 48.654C127.087 48.654 127.087 48.654 127.087 48.3465C134.148 44.0416 134.762 40.9667 134.762 32.0496C134.455 22.8249 134.455 13.6002 134.455 4.68302C134.455 4.06804 134.455 3.45306 134.455 2.53059C144.893 4.68302 155.332 20.6725 154.104 36.3544C152.569 52.3438 137.832 68.0258 127.087 69.2557Z" fill="#112D93"/>
<path d="M59.2362 53.5738L58.6222 72.6382C55.859 72.6382 53.0959 72.3307 50.6398 72.6382C30.9908 73.8681 17.7891 91.0875 21.1663 110.459C24.8505 131.676 46.9556 142.438 66.9116 133.214C78.5782 127.679 83.7974 118.147 84.4115 105.847C84.7185 95.3924 84.7185 84.9377 84.7185 74.7906C84.7185 73.8681 84.7185 74.7906 84.7185 72.6382C79.1922 72.6382 73.3589 72.6382 67.5256 72.6382V53.2663H84.7185C84.7185 47.4241 84.7185 41.8892 84.7185 36.3544C84.7185 30.8196 85.6395 25.8998 87.7886 20.98C93.6219 7.14298 104.674 0.99319 118.797 0.378212C121.867 0.378212 125.244 0.378214 128.622 0.993193L127.701 21.9025C125.859 20.98 124.937 20.365 123.402 20.0575C116.341 18.2126 110.201 20.6725 106.21 26.8223C104.06 29.8972 102.832 33.587 102.832 37.5844C102.832 49.5765 102.832 48.039 102.832 53.5738C105.903 53.5738 108.666 53.5738 111.429 53.5738C114.192 53.5738 117.262 53.5738 120.025 53.5738V72.6382C114.499 72.6382 108.666 72.6382 103.446 72.6382C103.446 75.0981 103.446 73.8681 103.446 74.7906C103.446 84.6302 103.753 94.7774 103.446 104.31C102.832 123.374 94.543 138.133 78.5782 147.973C42.6574 169.19 4.28044 143.053 1.21029 108.922C-0.0177765 96.9298 3.35939 86.1677 9.80671 75.713C17.7891 63.106 29.7627 56.3412 43.8854 53.8813C49.1047 53.2663 53.4029 52.9589 59.2362 53.5738Z" fill="#112D93"/>
<path d="M84.7185 72.6382H103.446L84.7185 80.9404V72.6382Z" fill="#001B4C"/>
<path d="M110.039 78H119.016L128.173 96.4951L137.286 78H146.263V109.622H138.955L138.91 89.5933L130.835 106.464H125.512L117.392 89.5933V109.622H110.039V78Z" fill="#112D93"/>
<path d="M180.431 78L169.018 99.5175V109.622H160.763V99.7431L149.125 78H157.38L164.868 91.5781L172.176 78H180.431Z" fill="#112D93"/>
<path d="M183.255 78H206.893L206.847 84.5861H191.51V91.6233H205.675V98.2093H191.51V109.622H183.255V78Z" fill="#112D93"/>
<path d="M210.656 78H218.911V102.585H232.309V109.622H210.656V78Z" fill="#112D93"/>
<path d="M243.788 96.5854C243.788 98.5702 244.375 100.164 245.547 101.367C246.72 102.57 248.209 103.171 250.013 103.171C251.788 103.171 253.216 102.585 254.299 101.412C255.411 100.209 255.968 98.6003 255.968 96.5854V78H264.223V96.5854C264.223 99.322 263.637 101.728 262.464 103.803C261.321 105.848 259.667 107.427 257.502 108.54C255.366 109.652 252.855 110.209 249.968 110.209C247.081 110.209 244.54 109.652 242.345 108.54C240.179 107.427 238.495 105.848 237.292 103.803C236.119 101.728 235.533 99.322 235.533 96.5854V78H243.788V96.5854Z" fill="#112D93"/>
<path d="M269.863 78H278.118V109.622H269.863V78Z" fill="#112D93"/>
<path d="M297.891 78C301.199 78 304.117 78.6616 306.643 79.9848C309.199 81.3081 311.184 83.1726 312.597 85.5785C314.011 87.9543 314.717 90.691 314.717 93.7885C314.717 96.8861 313.996 99.6378 312.552 102.044C311.139 104.45 309.124 106.314 306.507 107.637C303.921 108.961 300.944 109.622 297.576 109.622H284.268V78H297.891ZM298.117 102.946C299.711 102.946 301.124 102.57 302.357 101.818C303.59 101.066 304.553 99.9987 305.244 98.6153C305.936 97.2319 306.282 95.6531 306.282 93.8788C306.282 92.0744 305.906 90.4805 305.154 89.0971C304.432 87.7137 303.425 86.6461 302.132 85.8943C300.839 85.1124 299.365 84.7214 297.711 84.7214H292.523V102.946H298.117Z" fill="#112D93"/>
<path d="M318.805 78H327.061V109.622H318.805V78Z" fill="#112D93"/>
<path d="M330.459 78H357.57V84.8116H348.097V109.622H339.842V84.8116H330.459V78Z" fill="#112D93"/>
<path d="M360.92 78H369.175V109.622H360.92V78Z" fill="#112D93"/>
<path d="M110.177 118.275H122.023V121.251H117.884V132.092H114.277V121.251H110.177V118.275ZM129.794 121.29C130.977 121.29 131.917 121.658 132.613 122.394C133.323 123.13 133.677 124.122 133.677 125.371V132.092H130.169V126.376C130.169 125.771 130.005 125.298 129.676 124.957C129.361 124.602 128.921 124.424 128.355 124.424C127.712 124.438 127.199 124.667 126.818 125.114C126.45 125.548 126.266 126.12 126.266 126.829V132.092H122.758V117.467H126.266V123.163C126.647 122.545 127.133 122.079 127.725 121.763C128.329 121.448 129.019 121.29 129.794 121.29ZM140.728 121.31C142.463 121.31 143.796 121.823 144.729 122.848C145.662 123.873 146.129 125.279 146.129 127.066C146.129 127.342 146.122 127.552 146.109 127.696H138.698C138.869 128.301 139.164 128.767 139.585 129.096C140.005 129.411 140.518 129.569 141.122 129.569C141.582 129.569 142.022 129.477 142.443 129.293C142.876 129.109 143.271 128.84 143.625 128.485L145.459 130.318C144.907 130.935 144.237 131.409 143.448 131.737C142.673 132.052 141.792 132.21 140.807 132.21C139.664 132.21 138.665 131.987 137.811 131.54C136.957 131.093 136.3 130.462 135.84 129.648C135.393 128.833 135.17 127.887 135.17 126.809C135.17 125.719 135.4 124.759 135.86 123.932C136.319 123.091 136.97 122.447 137.811 122C138.652 121.54 139.624 121.31 140.728 121.31ZM142.719 125.824C142.719 125.206 142.535 124.713 142.167 124.346C141.812 123.964 141.339 123.774 140.748 123.774C140.196 123.774 139.729 123.958 139.348 124.326C138.98 124.694 138.737 125.193 138.619 125.824H142.719ZM158.846 118.275C159.884 118.275 160.785 118.419 161.547 118.708C162.322 118.984 162.92 119.385 163.34 119.911C163.761 120.436 163.971 121.054 163.971 121.763C163.971 122.486 163.754 123.117 163.321 123.656C162.9 124.194 162.322 124.562 161.586 124.759C162.467 124.93 163.156 125.331 163.656 125.962C164.168 126.593 164.424 127.355 164.424 128.248C164.424 129.024 164.208 129.707 163.774 130.298C163.34 130.876 162.723 131.323 161.921 131.638C161.12 131.941 160.18 132.092 159.103 132.092H152.283V118.275H158.846ZM158.649 123.774C159.149 123.774 159.543 123.656 159.832 123.419C160.121 123.169 160.266 122.828 160.266 122.394C160.266 121.974 160.121 121.652 159.832 121.428C159.543 121.192 159.149 121.08 158.649 121.093H155.89V123.774H158.649ZM158.649 129.293C159.28 129.293 159.779 129.162 160.147 128.899C160.515 128.636 160.699 128.268 160.699 127.795C160.699 127.361 160.515 127.02 160.147 126.77C159.779 126.507 159.28 126.382 158.649 126.395H155.89V129.293H158.649ZM176.799 121.428V132.092H173.291V130.357C172.568 131.592 171.431 132.223 169.881 132.25C168.724 132.25 167.798 131.882 167.102 131.146C166.418 130.397 166.077 129.405 166.077 128.169V121.428H169.585V127.164C169.585 127.769 169.736 128.242 170.038 128.583C170.354 128.925 170.774 129.096 171.3 129.096C171.918 129.083 172.404 128.859 172.759 128.426C173.113 127.979 173.291 127.401 173.291 126.691V121.428H176.799ZM186.597 124.799C185.217 124.076 184.087 123.715 183.206 123.715C182.904 123.715 182.661 123.774 182.477 123.892C182.293 123.997 182.201 124.162 182.201 124.385C182.201 124.622 182.346 124.812 182.635 124.957C182.924 125.101 183.384 125.259 184.014 125.43C184.777 125.653 185.407 125.876 185.907 126.1C186.419 126.31 186.859 126.639 187.227 127.085C187.595 127.519 187.779 128.091 187.779 128.8C187.779 129.878 187.359 130.725 186.518 131.343C185.69 131.947 184.606 132.25 183.265 132.25C182.359 132.25 181.492 132.125 180.664 131.875C179.836 131.612 179.1 131.231 178.456 130.732L179.56 128.465C180.164 128.886 180.795 129.214 181.452 129.451C182.122 129.674 182.753 129.786 183.344 129.786C183.686 129.786 183.955 129.733 184.152 129.628C184.363 129.51 184.468 129.345 184.468 129.135C184.468 128.872 184.317 128.669 184.014 128.524C183.725 128.38 183.265 128.222 182.635 128.051C181.886 127.828 181.268 127.611 180.782 127.401C180.296 127.177 179.869 126.849 179.501 126.415C179.146 125.982 178.969 125.416 178.969 124.72C178.969 123.643 179.376 122.802 180.191 122.197C181.005 121.58 182.057 121.271 183.344 121.271C184.12 121.271 184.882 121.376 185.631 121.586C186.393 121.796 187.109 122.105 187.779 122.512L186.597 124.799ZM189.664 121.428H193.152V132.092H189.664V121.428ZM191.378 116.52C191.917 116.52 192.357 116.698 192.699 117.053C193.054 117.394 193.231 117.841 193.231 118.393C193.231 118.932 193.054 119.378 192.699 119.733C192.357 120.088 191.917 120.265 191.378 120.265C190.84 120.265 190.393 120.088 190.038 119.733C189.696 119.378 189.526 118.932 189.526 118.393C189.526 117.841 189.696 117.394 190.038 117.053C190.393 116.698 190.84 116.52 191.378 116.52ZM202.879 121.29C204.049 121.29 204.982 121.658 205.678 122.394C206.388 123.13 206.742 124.122 206.742 125.371V132.092H203.254V126.376C203.254 125.771 203.089 125.298 202.761 124.957C202.432 124.602 201.992 124.424 201.44 124.424C200.862 124.438 200.382 124.628 200.001 124.996C199.633 125.364 199.417 125.85 199.351 126.455V132.092H195.842V121.428H199.351V123.163C199.732 122.545 200.218 122.079 200.809 121.763C201.414 121.448 202.104 121.29 202.879 121.29ZM213.815 121.31C215.55 121.31 216.883 121.823 217.816 122.848C218.749 123.873 219.216 125.279 219.216 127.066C219.216 127.342 219.209 127.552 219.196 127.696H211.785C211.956 128.301 212.251 128.767 212.672 129.096C213.092 129.411 213.605 129.569 214.209 129.569C214.669 129.569 215.109 129.477 215.53 129.293C215.964 129.109 216.358 128.84 216.713 128.485L218.546 130.318C217.994 130.935 217.324 131.409 216.535 131.737C215.76 132.052 214.879 132.21 213.894 132.21C212.751 132.21 211.752 131.987 210.898 131.54C210.044 131.093 209.387 130.462 208.927 129.648C208.48 128.833 208.257 127.887 208.257 126.809C208.257 125.719 208.487 124.759 208.947 123.932C209.406 123.091 210.057 122.447 210.898 122C211.739 121.54 212.711 121.31 213.815 121.31ZM215.806 125.824C215.806 125.206 215.622 124.713 215.254 124.346C214.899 123.964 214.426 123.774 213.835 123.774C213.283 123.774 212.816 123.958 212.435 124.326C212.067 124.694 211.824 125.193 211.706 125.824H215.806ZM228.116 124.799C226.736 124.076 225.606 123.715 224.726 123.715C224.423 123.715 224.18 123.774 223.996 123.892C223.812 123.997 223.72 124.162 223.72 124.385C223.72 124.622 223.865 124.812 224.154 124.957C224.443 125.101 224.903 125.259 225.534 125.43C226.296 125.653 226.927 125.876 227.426 126.1C227.938 126.31 228.379 126.639 228.747 127.085C229.115 127.519 229.298 128.091 229.298 128.8C229.298 129.878 228.878 130.725 228.037 131.343C227.209 131.947 226.125 132.25 224.785 132.25C223.878 132.25 223.011 132.125 222.183 131.875C221.355 131.612 220.619 131.231 219.975 130.732L221.079 128.465C221.684 128.886 222.314 129.214 222.971 129.451C223.642 129.674 224.272 129.786 224.864 129.786C225.205 129.786 225.475 129.733 225.672 129.628C225.882 129.51 225.987 129.345 225.987 129.135C225.987 128.872 225.836 128.669 225.534 128.524C225.245 128.38 224.785 128.222 224.154 128.051C223.405 127.828 222.787 127.611 222.301 127.401C221.815 127.177 221.388 126.849 221.02 126.415C220.665 125.982 220.488 125.416 220.488 124.72C220.488 123.643 220.895 122.802 221.71 122.197C222.525 121.58 223.576 121.271 224.864 121.271C225.639 121.271 226.401 121.376 227.15 121.586C227.912 121.796 228.628 122.105 229.298 122.512L228.116 124.799ZM238.298 124.799C236.919 124.076 235.789 123.715 234.908 123.715C234.606 123.715 234.363 123.774 234.179 123.892C233.995 123.997 233.903 124.162 233.903 124.385C233.903 124.622 234.047 124.812 234.337 124.957C234.626 125.101 235.086 125.259 235.716 125.43C236.478 125.653 237.109 125.876 237.609 126.1C238.121 126.31 238.561 126.639 238.929 127.085C239.297 127.519 239.481 128.091 239.481 128.8C239.481 129.878 239.061 130.725 238.22 131.343C237.392 131.947 236.308 132.25 234.967 132.25C234.061 132.25 233.193 132.125 232.365 131.875C231.538 131.612 230.802 131.231 230.158 130.732L231.262 128.465C231.866 128.886 232.497 129.214 233.154 129.451C233.824 129.674 234.455 129.786 235.046 129.786C235.388 129.786 235.657 129.733 235.854 129.628C236.065 129.51 236.17 129.345 236.17 129.135C236.17 128.872 236.019 128.669 235.716 128.524C235.427 128.38 234.967 128.222 234.337 128.051C233.588 127.828 232.97 127.611 232.484 127.401C231.998 127.177 231.57 126.849 231.203 126.415C230.848 125.982 230.67 125.416 230.67 124.72C230.67 123.643 231.078 122.802 231.892 122.197C232.707 121.58 233.758 121.271 235.046 121.271C235.821 121.271 236.584 121.376 237.333 121.586C238.095 121.796 238.811 122.105 239.481 122.512L238.298 124.799ZM246.057 121.31C247.791 121.31 249.125 121.823 250.058 122.848C250.991 123.873 251.457 125.279 251.457 127.066C251.457 127.342 251.451 127.552 251.437 127.696H244.026C244.197 128.301 244.493 128.767 244.913 129.096C245.334 129.411 245.846 129.569 246.451 129.569C246.911 129.569 247.351 129.477 247.771 129.293C248.205 129.109 248.599 128.84 248.954 128.485L250.787 130.318C250.235 130.935 249.565 131.409 248.777 131.737C248.001 132.052 247.121 132.21 246.135 132.21C244.992 132.21 243.993 131.987 243.139 131.54C242.285 131.093 241.628 130.462 241.168 129.648C240.722 128.833 240.498 127.887 240.498 126.809C240.498 125.719 240.728 124.759 241.188 123.932C241.648 123.091 242.298 122.447 243.139 122C243.98 121.54 244.953 121.31 246.057 121.31ZM248.047 125.824C248.047 125.206 247.863 124.713 247.495 124.346C247.141 123.964 246.668 123.774 246.076 123.774C245.524 123.774 245.058 123.958 244.677 124.326C244.309 124.694 244.066 125.193 243.947 125.824H248.047ZM260.357 124.799C258.978 124.076 257.847 123.715 256.967 123.715C256.665 123.715 256.422 123.774 256.238 123.892C256.054 123.997 255.962 124.162 255.962 124.385C255.962 124.622 256.106 124.812 256.395 124.957C256.685 125.101 257.144 125.259 257.775 125.43C258.537 125.653 259.168 125.876 259.667 126.1C260.18 126.31 260.62 126.639 260.988 127.085C261.356 127.519 261.54 128.091 261.54 128.8C261.54 129.878 261.119 130.725 260.278 131.343C259.451 131.947 258.367 132.25 257.026 132.25C256.12 132.25 255.252 132.125 254.424 131.875C253.597 131.612 252.861 131.231 252.217 130.732L253.321 128.465C253.925 128.886 254.556 129.214 255.213 129.451C255.883 129.674 256.514 129.786 257.105 129.786C257.447 129.786 257.716 129.733 257.913 129.628C258.123 129.51 258.229 129.345 258.229 129.135C258.229 128.872 258.077 128.669 257.775 128.524C257.486 128.38 257.026 128.222 256.395 128.051C255.646 127.828 255.029 127.611 254.543 127.401C254.056 127.177 253.629 126.849 253.261 126.415C252.907 125.982 252.729 125.416 252.729 124.72C252.729 123.643 253.137 122.802 253.951 122.197C254.766 121.58 255.817 121.271 257.105 121.271C257.88 121.271 258.642 121.376 259.391 121.586C260.154 121.796 260.87 122.105 261.54 122.512L260.357 124.799ZM277.314 122.434C276.578 122 275.79 121.645 274.949 121.369C274.121 121.093 273.424 120.955 272.859 120.955C272.413 120.955 272.058 121.041 271.795 121.212C271.545 121.369 271.42 121.606 271.42 121.921C271.42 122.223 271.532 122.48 271.756 122.69C271.979 122.887 272.255 123.051 272.583 123.183C272.912 123.301 273.398 123.459 274.042 123.656C275.001 123.932 275.79 124.208 276.407 124.484C277.038 124.759 277.577 125.187 278.024 125.765C278.47 126.33 278.694 127.072 278.694 127.992C278.694 128.912 278.451 129.7 277.964 130.357C277.478 131.001 276.808 131.487 275.954 131.816C275.113 132.144 274.173 132.309 273.135 132.309C271.992 132.309 270.849 132.112 269.706 131.717C268.576 131.31 267.597 130.758 266.769 130.062L268.168 127.243C268.865 127.861 269.686 128.367 270.632 128.761C271.591 129.155 272.439 129.352 273.175 129.352C273.713 129.352 274.134 129.253 274.436 129.056C274.752 128.859 274.909 128.57 274.909 128.189C274.909 127.874 274.791 127.611 274.554 127.401C274.331 127.19 274.042 127.026 273.687 126.908C273.346 126.777 272.859 126.625 272.229 126.455C271.283 126.192 270.501 125.929 269.883 125.666C269.265 125.39 268.733 124.983 268.287 124.444C267.853 123.892 267.636 123.163 267.636 122.256C267.636 121.402 267.859 120.653 268.306 120.009C268.766 119.365 269.41 118.873 270.238 118.531C271.079 118.176 272.051 117.999 273.155 117.999C274.154 117.999 275.139 118.143 276.112 118.432C277.084 118.708 277.938 119.083 278.674 119.556L277.314 122.434ZM280.536 121.428H284.025V132.092H280.536V121.428ZM282.251 116.52C282.79 116.52 283.23 116.698 283.572 117.053C283.927 117.394 284.104 117.841 284.104 118.393C284.104 118.932 283.927 119.378 283.572 119.733C283.23 120.088 282.79 120.265 282.251 120.265C281.712 120.265 281.266 120.088 280.911 119.733C280.569 119.378 280.398 118.932 280.398 118.393C280.398 117.841 280.569 117.394 280.911 117.053C281.266 116.698 281.712 116.52 282.251 116.52ZM300.946 121.29C302.103 121.29 303.029 121.658 303.725 122.394C304.422 123.13 304.77 124.122 304.77 125.371V132.092H301.262V126.376C301.262 125.771 301.104 125.298 300.789 124.957C300.473 124.602 300.046 124.424 299.507 124.424C298.89 124.438 298.397 124.667 298.029 125.114C297.674 125.548 297.497 126.12 297.497 126.829V132.092H293.988V126.376C293.988 125.771 293.831 125.298 293.515 124.957C293.2 124.602 292.773 124.424 292.234 124.424C291.617 124.438 291.124 124.667 290.756 125.114C290.388 125.548 290.204 126.12 290.204 126.829V132.092H286.715V121.428H290.204V123.183C290.572 122.565 291.045 122.099 291.623 121.783C292.214 121.455 292.898 121.29 293.673 121.29C294.54 121.29 295.283 121.501 295.9 121.921C296.518 122.342 296.958 122.926 297.221 123.675C297.563 122.887 298.049 122.296 298.679 121.901C299.323 121.494 300.079 121.29 300.946 121.29ZM313.898 121.31C314.884 121.31 315.751 121.54 316.5 122C317.249 122.447 317.827 123.091 318.235 123.932C318.655 124.759 318.865 125.719 318.865 126.809C318.865 127.887 318.662 128.833 318.254 129.648C317.86 130.462 317.288 131.093 316.539 131.54C315.804 131.987 314.949 132.21 313.977 132.21C313.307 132.21 312.696 132.085 312.144 131.836C311.605 131.573 311.145 131.198 310.764 130.712V135.916H307.256V121.428H310.764V122.808C311.54 121.809 312.584 121.31 313.898 121.31ZM313.031 129.372C313.714 129.372 314.266 129.129 314.687 128.642C315.12 128.156 315.337 127.519 315.337 126.731C315.337 125.942 315.12 125.305 314.687 124.819C314.266 124.319 313.714 124.07 313.031 124.07C312.361 124.07 311.815 124.319 311.395 124.819C310.974 125.305 310.764 125.942 310.764 126.731C310.764 127.519 310.974 128.156 311.395 128.642C311.815 129.129 312.361 129.372 313.031 129.372ZM320.768 117.467H324.277V132.092H320.768V117.467ZM327.06 121.428H330.549V132.092H327.06V121.428ZM328.775 116.52C329.314 116.52 329.754 116.698 330.096 117.053C330.45 117.394 330.628 117.841 330.628 118.393C330.628 118.932 330.45 119.378 330.096 119.733C329.754 120.088 329.314 120.265 328.775 120.265C328.236 120.265 327.79 120.088 327.435 119.733C327.093 119.378 326.922 118.932 326.922 118.393C326.922 117.841 327.093 117.394 327.435 117.053C327.79 116.698 328.236 116.52 328.775 116.52ZM338.561 120.108C338.206 120.108 337.917 120.206 337.694 120.403C337.47 120.601 337.359 120.883 337.359 121.251V121.941H339.724V124.267H337.359V132.092H333.87V124.267H332.431V121.941H333.87V120.955C333.87 119.825 334.244 118.938 334.993 118.294C335.755 117.637 336.728 117.309 337.91 117.309C338.686 117.309 339.448 117.447 340.197 117.723L339.744 120.384C339.218 120.2 338.824 120.108 338.561 120.108ZM341.044 121.428H344.533V132.092H341.044V121.428ZM342.759 116.52C343.298 116.52 343.738 116.698 344.08 117.053C344.435 117.394 344.612 117.841 344.612 118.393C344.612 118.932 344.435 119.378 344.08 119.733C343.738 120.088 343.298 120.265 342.759 120.265C342.221 120.265 341.774 120.088 341.419 119.733C341.077 119.378 340.907 118.932 340.907 118.393C340.907 117.841 341.077 117.394 341.419 117.053C341.774 116.698 342.221 116.52 342.759 116.52ZM351.905 121.31C353.639 121.31 354.973 121.823 355.906 122.848C356.839 123.873 357.305 125.279 357.305 127.066C357.305 127.342 357.299 127.552 357.286 127.696H349.875C350.045 128.301 350.341 128.767 350.761 129.096C351.182 129.411 351.694 129.569 352.299 129.569C352.759 129.569 353.199 129.477 353.62 129.293C354.053 129.109 354.447 128.84 354.802 128.485L356.635 130.318C356.083 130.935 355.413 131.409 354.625 131.737C353.849 132.052 352.969 132.21 351.984 132.21C350.84 132.21 349.842 131.987 348.988 131.54C348.133 131.093 347.476 130.462 347.016 129.648C346.57 128.833 346.346 127.887 346.346 126.809C346.346 125.719 346.576 124.759 347.036 123.932C347.496 123.091 348.147 122.447 348.988 122C349.829 121.54 350.801 121.31 351.905 121.31ZM353.895 125.824C353.895 125.206 353.712 124.713 353.344 124.346C352.989 123.964 352.516 123.774 351.924 123.774C351.373 123.774 350.906 123.958 350.525 124.326C350.157 124.694 349.914 125.193 349.796 125.824H353.895ZM369.852 117.467V132.092H366.343V130.712C365.976 131.211 365.522 131.592 364.983 131.855C364.458 132.105 363.86 132.23 363.19 132.23C362.204 132.23 361.337 132 360.588 131.54C359.839 131.08 359.254 130.436 358.834 129.608C358.426 128.767 358.223 127.801 358.223 126.711C358.223 125.633 358.426 124.687 358.834 123.873C359.241 123.058 359.813 122.427 360.549 121.98C361.284 121.534 362.139 121.31 363.111 121.31C363.794 121.31 364.405 121.442 364.944 121.704C365.496 121.967 365.962 122.342 366.343 122.828V117.467H369.852ZM364.057 129.47C364.74 129.47 365.292 129.227 365.713 128.741C366.133 128.242 366.343 127.598 366.343 126.809C366.343 126.008 366.133 125.364 365.713 124.878C365.292 124.392 364.74 124.148 364.057 124.148C363.374 124.148 362.815 124.398 362.382 124.897C361.961 125.384 361.751 126.021 361.751 126.809C361.751 127.598 361.961 128.242 362.382 128.741C362.815 129.227 363.374 129.47 364.057 129.47Z" fill="#112D93"/>
</svg>
